# File created by Blade
# Date/Time:  Wed Jan 28 15:39:58 2015
#---------------------------------------------------------
:version 1.10
:name HOM
:units
  mass 1.0
  length 1.000000
  angle deg
:documentation
     Acclaim Skeleton File
:root
   axis xyz
   order TX TY TZ RX RY RZ
   position 0.000000 0.000000 0.000000
   orientation 0 0 0
:bonedata
   begin
      id 1
      name Spine_dum
      direction 0.000000 1.000000 0.000000
      length 6.864287
      axis 0.0 0.0 0.0 xyz
   end
   begin
      id 2
      name LeftUpLeg_dum
      direction 1.000000 0.000000 0.000000
      length 4.117376
      axis 0.0 0.0 0.0 xyz
   end
   begin
      id 3
      name RightUpLeg_dum
      direction -1.000000 0.000000 0.000000
      length 4.117376
      axis 0.0 0.0 0.0 xyz
   end
   begin
      id 4
      name Spine
      direction 0.000000 1.000000 0.000000
      length 0.000000
      axis 0.0 0.0 0.0 xyz
      dof rx ry rz
   end
   begin
      id 5
      name Spine_dum1
      direction 0.000000 1.000000 0.000000
      length 15.393827
      axis 0.0 0.0 0.0 xyz
   end
   begin
      id 6
      name Spine_dum2
      direction 0.000000 1.000000 0.000000
      length 9.314826
      axis 0.0 0.0 0.0 xyz
   end
   begin
      id 7
      name Spine_dum3
      direction 0.000000 1.000000 0.000000
      length 9.314826
      axis 0.0 0.0 0.0 xyz
   end
   begin
      id 8
      name Head
      direction 0.000000 1.000000 0.000000
      length 4.527550
      axis 0.0 0.0 0.0 xyz
      dof rx ry rz
   end
   begin
      id 9
      name LeftShoulder
      direction 1.000000 0.000000 0.000000
      length 8.275398
      axis 0.0 0.0 -90.0 xyz
      dof rx ry rz
   end
   begin
      id 10
      name LeftArm
      direction 1.000000 0.000000 0.000000
      length 12.002200
      axis 0.0 0.0 -90.0 xyz
      dof rx ry rz
   end
   begin
      id 11
      name LeftForeArm
      direction 1.000000 0.000000 0.000000
      length 10.144633
      axis 0.0 0.0 -90.0 xyz
      dof ry rz rx
   end
   begin
      id 12
      name LeftHand
      direction 0.000000 0.000000 0.000000
      length 0.000000
      axis 0.0 0.0 -90.0 xyz
      dof rx ry rz
   end
   begin
      id 13
      name LeftHand_dum1
      direction 0.000000 0.000000 0.000000
      length 0.000000
      axis 0.0 0.0 -90.0 xyz
   end
   begin
      id 14
      name LeftHand_dum2
      direction 1.000000 0.000000 0.000000
      length 3.937000
      axis 0.0 0.0 -90.0 xyz
   end
   begin
      id 15
      name LeftHandThumb1
      direction 0.000000 0.000000 1.000000
      length 3.937000
      axis 0.0 0.0 -90.0 xyz
      dof rx rz ry
   end
   begin
      id 16
      name RightShoulder
      direction -1.000000 0.000000 0.000000
      length 8.275398
      axis 0.0 0.0 90.0 xyz
      dof rx ry rz
   end
   begin
      id 17
      name RightArm
      direction -1.000000 0.000000 0.000000
      length 12.002200
      axis 0.0 0.0 90.0 xyz
      dof rx ry rz
   end
   begin
      id 18
      name RightForeArm
      direction -1.000000 0.000000 0.000000
      length 10.144633
      axis 0.0 0.0 90.0 xyz
      dof ry rz rx
   end
   begin
      id 19
      name RightHand
      direction 0.000000 0.000000 0.000000
      length 0.000000
      axis 0.0 0.0 90.0 xyz
      dof rx ry rz
   end
   begin
      id 20
      name RightHand_dum1
      direction 0.000000 0.000000 0.000000
      length 0.000000
      axis 0.0 0.0 90.0 xyz
   end
   begin
      id 21
      name RightHand_dum2
      direction -1.000000 0.000000 0.000000
      length 3.937000
      axis 0.0 0.0 90.0 xyz
   end
   begin
      id 22
      name RightHandThumb1
      direction 0.000000 0.000000 1.000000
      length 3.937000
      axis 0.0 0.0 90.0 xyz
      dof rx rz ry
   end
   begin
      id 23
      name LeftUpLeg
      direction 0.000000 -1.000000 0.000000
      length 19.394322
      axis 0.0 0.0 0.0 xyz
      dof rx ry rz
   end
   begin
      id 24
      name LeftLeg
      direction 0.000000 -1.000000 0.000000
      length 17.609563
      axis 0.0 0.0 0.0 xyz
      dof rx ry rz
   end
   begin
      id 25
      name LeftFoot
      direction 0.000000 -0.258819 0.965926
      length 6.085393
      axis 15.0 0.0 0.0 xyz
      dof rx ry rz
   end
   begin
      id 26
      name LeftToeBase
      direction 0.000000 0.000000 1.000000
      length 2.952750
      axis 0.0 0.0 0.0 xyz
      dof rx ry rz
   end
   begin
      id 27
      name RightUpLeg
      direction 0.000000 -1.000000 0.000000
      length 19.394322
      axis 0.0 0.0 0.0 xyz
      dof rx ry rz
   end
   begin
      id 28
      name RightLeg
      direction 0.000000 -1.000000 0.000000
      length 17.609563
      axis 0.0 0.0 0.0 xyz
      dof rx ry rz
   end
   begin
      id 29
      name RightFoot
      direction 0.000000 -0.258819 0.965926
      length 6.085393
      axis 15.0 0.0 0.0 xyz
      dof rx ry rz
   end
   begin
      id 30
      name RightToeBase
      direction 0.000000 0.000000 1.000000
      length 2.952750
      axis 0.0 0.0 0.0 xyz
      dof rx ry rz
   end
:hierarchy
   begin
      root Spine_dum LeftUpLeg_dum RightUpLeg_dum
      Spine_dum Spine
      LeftUpLeg_dum LeftUpLeg
      RightUpLeg_dum RightUpLeg
      Spine Spine_dum1 Spine_dum2 Spine_dum3
      Spine_dum1 Head
      Spine_dum2 LeftShoulder
      Spine_dum3 RightShoulder
      LeftShoulder LeftArm
      LeftArm LeftForeArm
      LeftForeArm LeftHand
      LeftHand LeftHand_dum1 LeftHand_dum2
      LeftHand_dum1 LeftHandThumb1
      RightShoulder RightArm
      RightArm RightForeArm
      RightForeArm RightHand
      RightHand RightHand_dum1 RightHand_dum2
      RightHand_dum1 RightHandThumb1
      LeftUpLeg LeftLeg
      LeftLeg LeftFoot
      LeftFoot LeftToeBase
      RightUpLeg RightLeg
      RightLeg RightFoot
      RightFoot RightToeBase
   end

# File created by Blade
# Date/Time:  Wed Jan 28 15:40:07 2015
# Frame Rate: 120.000 fps
#------------------------------------------------------
:FULLY-SPECIFIED
:DEGREES
1788
root -3.811140 39.685445 -10.042365 8.752334 -3.502962 2.053995
Spine 14.223428 -7.167136 -8.312156
Head -8.127793 5.548496 -3.912352
LeftShoulder -10.581768 17.606148 14.236876
LeftArm 24.758491 20.700816 -71.199299
LeftForeArm 6.228615 -0.000000 43.502203
LeftHand 5.108491 0.000000 1.687381
LeftHandThumb1 -26.253704 0.000000 33.147579
RightShoulder -8.196031 1.485135 -16.904696
RightArm -3.129775 -8.408291 76.256208
RightForeArm -17.088244 -0.000000 80.783455
RightHand -8.076131 0.000000 -23.996007
RightHandThumb1 -24.326973 -0.000000 -32.862282
LeftUpLeg -9.610499 11.451244 -4.778144
LeftLeg 3.054697 -0.000000 -0.000000
LeftFoot -5.695901 3.521554 -12.249636
LeftToeBase 13.512221 -0.000000 -0.000000
RightUpLeg -17.752939 -1.559879 -0.603917
RightLeg 19.850370 -0.000000 -0.000000
RightFoot -22.378067 -12.889901 24.485311
RightToeBase 2.142559 -0.000000 -0.000000
1789
root -3.836419 39.678152 -10.008307 8.729767 -3.360014 2.158131
Spine 14.072710 -7.097502 -8.529570
Head -8.073654 5.528593 -3.909654
LeftShoulder -10.611343 17.680593 14.189586
LeftArm 24.720046 20.778074 -71.085575
LeftForeArm 6.048919 -0.000000 43.062157
LeftHand 5.034165 -0.000000 1.729717
LeftHandThumb1 -26.253704 0.000000 33.147579
RightShoulder -8.234350 1.388803 -16.866055
RightArm -3.095625 -8.656566 76.369038
RightForeArm -16.997949 0.000000 80.886549
RightHand -8.145833 -0.000000 -23.933653
RightHandThumb1 -24.326973 -0.000000 -32.862282
LeftUpLeg -9.491755 11.510996 -4.839044
LeftLeg 2.954257 -0.000000 -0.000000
LeftFoot -5.678401 3.325448 -12.280749
LeftToeBase 13.607532 -0.000000 -0.000000
RightUpLeg -17.357093 -1.155675 -0.689175
RightLeg 18.709887 -0.000000 -0.000000
RightFoot -21.896888 -12.809309 24.796970
RightToeBase 2.163800 -0.000000 -0.000000
1790
root -3.859909 39.669670 -9.971131 8.661164 -3.207250 2.272303
Spine 13.968679 -7.020020 -8.726734
Head -8.039192 5.507990 -3.968463
LeftShoulder -10.629974 17.694031 14.124810
LeftArm 24.655847 20.859399 -70.996199
LeftForeArm 5.899355 -0.000000 42.577366
LeftHand 5.026370 -0.000000 1.778010
LeftHandThumb1 -26.253704 0.000000 33.147579
RightShoulder -8.255069 1.340247 -16.861811
RightArm -3.110269 -8.862491 76.488335
RightForeArm -16.871245 -0.000000 80.961214
RightHand -8.024832 -0.000000 -23.727379
RightHandThumb1 -24.326973 -0.000000 -32.862282
LeftUpLeg -9.300258 11.447396 -4.874822
LeftLeg 2.804577 -0.000000 -0.000000
LeftFoot -5.604229 3.214852 -12.313091
LeftToeBase 13.510544 -0.000000 -0.000000
RightUpLeg -16.931816 -0.748994 -0.763537
RightLeg 17.665603 -0.000000 -0.000000
RightFoot -21.433091 -12.901674 25.260925
RightToeBase 2.644647 -0.000000 -0.000000
1791
root -3.884616 39.660266 -9.929408 8.592017 -3.048230 2.368829
Spine 13.839662 -6.964270 -8.886739
Head -7.944708 5.456193 -4.013784
LeftShoulder -10.686415 17.751876 14.014024
LeftArm 24.629002 20.949291 -70.904269
LeftForeArm 5.834716 -0.000000 42.046879
LeftHand 5.124354 0.000000 1.659464
LeftHandThumb1 -26.253704 0.000000 33.147579
RightShoulder -8.266039 1.258910 -16.856169
RightArm -3.096235 -9.092178 76.581452
RightForeArm -16.768429 0.000000 81.002547
RightHand -7.772697 0.000000 -23.656541
RightHandThumb1 -24.326973 -0.000000 -32.862282
LeftUpLeg -9.070566 11.237555 -4.880941
LeftLeg 2.596123 -0.000000 -0.000000
LeftFoot -5.605731 3.287130 -12.456684
LeftToeBase 13.607144 -0.000000 -0.000000
RightUpLeg -16.480671 -0.572884 -0.797951
RightLeg 16.642606 -0.000000 -0.000000
RightFoot -20.679367 -12.879739 25.535361
RightToeBase 2.962491 -0.000000 -0.000000
1792
root -3.912108 39.649042 -9.888998 8.546790 -2.946895 2.492580
Spine 13.660598 -6.842123 -9.086204
Head -7.841620 5.414244 -4.054518
LeftShoulder -10.740498 17.858944 13.929567
LeftArm 24.634328 21.031080 -70.810328
LeftForeArm 5.647506 -0.000000 41.504573
LeftHand 5.107026 -0.000000 1.747611
LeftHandThumb1 -26.253704 0.000000 33.147579
RightShoulder -8.281401 1.195602 -16.849955
RightArm -3.114421 -9.325682 76.699677
RightForeArm -16.695596 -0.000000 81.057305
RightHand -7.732038 -0.000000 -23.630327
RightHandThumb1 -24.326973 -0.000000 -32.862282
LeftUpLeg -8.895898 11.195119 -4.931939
LeftLeg 2.449991 -0.000000 -0.000000
LeftFoot -5.618129 3.204375 -12.613051
LeftToeBase 13.738283 -0.000000 -0.000000
RightUpLeg -16.081701 -0.493923 -0.818637
RightLeg 15.705915 -0.000000 -0.000000
RightFoot -19.721413 -13.282793 24.707823
RightToeBase 3.822818 -0.000000 -0.000000
